<svg xmlns="http://www.w3.org/2000/svg" viewBox="0 0 68.14 21.41"><defs><style>.cls-1{fill:#0e1517;}</style></defs><title>Tallgrass_3</title><g id="Warstwa_2" data-name="Warstwa 2"><g id="Warstwa_2-2" data-name="Warstwa 2"><path class="cls-1" d="M13.12,7.82a37.05,37.05,0,0,1,2,7.69,36,36,0,0,1,.38,5.39h.28a32.26,32.26,0,0,0-1-8.35A33.53,33.53,0,0,0,13.12,7.82Z"/><path class="cls-1" d="M18.61,15.7c.24-.33.5-.64.77-.95a11.28,11.28,0,0,0-1.61,1.76c0-.1,0-.19,0-.29A19.39,19.39,0,0,0,17,11.91c-.05,0,.28,1.72.48,4.46,0,.17,0,.33,0,.5s-.14.2-.2.3-.12.22-.18.34a5.64,5.64,0,0,0,.13-.62c0-.3-.1-.36-.14-.68a1.75,1.75,0,0,1,.09-.81,1.12,1.12,0,0,0-.23.72c0,.25.13.31.14.62a4.44,4.44,0,0,1-.08.6s0,.08,0,.12c0-.23-.09-.47-.14-.7s-.16-.68-.25-1a5.18,5.18,0,0,0-.36-1l-.24-.46c-.08-.15-.15-.31-.21-.47v0c0-.08.06-.27.12-.56s.07-.4.12-.62.09-.39.11-.5a1.88,1.88,0,0,0-.31.65,4.5,4.5,0,0,0-.07.75c0,.07,0,.14,0,.19a6.63,6.63,0,0,1-.21-.67c0-.08,0-.17,0-.25,0-.33-.07-.52-.1-.7a5.12,5.12,0,0,1-.05-.76,3.44,3.44,0,0,0,0,.75,3.71,3.71,0,0,0,.1.68,1.58,1.58,0,0,0,.12.39h0a6.63,6.63,0,0,0,.2.7c.06.16.13.32.2.48l.23.47a5.09,5.09,0,0,1,.33,1l0,.08-.27-.5a2.57,2.57,0,0,0-.37-.57c-.09-.1-.13-.12-.25-.24a2.94,2.94,0,0,1-.38-.47,4,4,0,0,0,.59,1,6.83,6.83,0,0,1,.51.62l.18.27c.07.29.13.58.19.87s.13.68.18,1v0a6.12,6.12,0,0,0-.6,3h.19a9.17,9.17,0,0,1,.52-2.33l0,.31q.14,1,.26,2.06l.23,0q-.15-1-.31-2.06l-.1-.6c.11-.27.23-.53.36-.81.12,2.21.05,3.54.1,3.54a18.17,18.17,0,0,0,.13-4A12.1,12.1,0,0,1,18.61,15.7Z"/><path class="cls-1" d="M33.42,7.82a26.79,26.79,0,0,0-2,5.08c-.17-.75-.35-1.49-.55-2.21.16.87.3,1.77.43,2.69-.2.78-.36,1.53-.49,2.25a.58.58,0,0,0-.29,0,.64.64,0,0,0-.21.12c0-.05,0-.12,0-.21s0-.54-.09-.55-.11.18-.15.3a2.66,2.66,0,0,0-.12.58,1.25,1.25,0,0,0-.09-.4c-.09-.21-.26-.45-.33-.43s0,.36,0,.43a1.56,1.56,0,0,0,.15.49c-.29-.08-.38-.07-.4,0s.18.31.46.4a.74.74,0,0,0,.28,0c0,.1,0,.19-.07.29s0,.2-.06.31,0,.21-.05.31,0,.5-.07.75a6.77,6.77,0,0,0-.15-.68c0-.11-.13-.46-.18-.46s0,.14,0,.18c0,.8-.11,1.19-.09,1.74a2.62,2.62,0,0,0-.33.26,2.76,2.76,0,0,0-.43.53,38.85,38.85,0,0,1,2-9.92q.36-1.06.77-2a26.55,26.55,0,0,0-2.92,10.22,31.52,31.52,0,0,0-.7-5.14A32.83,32.83,0,0,1,29,9.32a28.4,28.4,0,0,0-1.49,3.08,29.29,29.29,0,0,0-2.73-7.15,36.35,36.35,0,0,1,2.58,7.54,27.8,27.8,0,0,0-1.17,3.68c-.06.25-.11.5-.16.74-.15-.19-.3-.36-.44-.51a21.56,21.56,0,0,1-.09-2.86,18,18,0,0,0-.11,4.63c.05.48.12.93.2,1.36,0,.08,0,.15,0,.23A8.19,8.19,0,0,0,25,18.7a61.83,61.83,0,0,0-.36-7,1.11,1.11,0,0,0,.16-.56,2,2,0,0,1-.18.35c-.05-.47-.13-.94-.19-1.4h0c-.08-.59-.15-1.18-.25-1.77S24,7.44,23.89,7A.46.46,0,0,0,24,6.84a.65.65,0,0,1,.1-.12l.08-.08.06-.07a.22.22,0,0,0,.06-.08s0,0,0,0l-.06,0s-.06,0-.07,0,.05-.09,0-.1,0,0-.06,0,0-.06,0-.07,0,0,0-.07,0,0,0,0,0,0-.1.08-.15.19-.15.19A.68.68,0,0,1,24,6.36c.05-.08.1-.14.1-.15h0s0,0,0-.08,0,0,0-.06,0,0,0-.06,0-.05,0-.06-.08.07-.1.06,0-.08,0-.14.05-.06.07-.11,0-.08,0-.08,0,0-.06,0,0-.07,0-.08.12-.2.11-.21-.09.06-.1.07a2.63,2.63,0,0,0-.18.21.55.55,0,0,1,.06-.14,1.41,1.41,0,0,1,.08-.17c.05-.08.08-.08.1-.14s0,0,0-.14,0-.12,0-.14-.06,0-.07,0,0,0,0-.08,0-.1-.06-.1,0,0,0,.1a.34.34,0,0,1-.1.15S24,5,24,5a.54.54,0,0,0-.1.17c-.07.17-.08.3-.1.3s0,0,0-.07,0-.06,0-.08l-.06,0-.06,0s0-.06,0-.15a.34.34,0,0,0,0-.1c0-.07,0-.07-.06-.15a.27.27,0,0,1,0-.17l0-.06c0-.06,0-.14,0-.15s0,0-.08.06-.14.15-.17.14,0-.06,0-.1,0-.06.07-.11a.24.24,0,0,0,0-.17l0,.06c0,.07-.11.17-.12.17s0,0,0-.07,0-.12.06-.17,0-.13,0-.21,0-.07,0-.08h0s0-.05,0-.07l.07-.17a1.08,1.08,0,0,0,.06-.18c0-.05,0-.08,0-.08a1.87,1.87,0,0,0-.37.66,1.14,1.14,0,0,0-.08.29,3.06,3.06,0,0,1,0,.41c0,.13-.06.12-.07.22s0,.12.07.32,0,.16.06.29,0,.15,0,.28c0,.3,0,.37.06.43a1,1,0,0,0,.45.59c.09.47.18.95.26,1.42.12.69.2,1.39.29,2.08a2.86,2.86,0,0,1-.1.37,3.84,3.84,0,0,0-.17.44,1.4,1.4,0,0,0,0,.65,16.61,16.61,0,0,1-.14,2.2q-.07.55-.18,1.1c0,.08,0,.17,0,.25l0-.16a8.23,8.23,0,0,1-.06-.83,2.76,2.76,0,0,0,0-.76,1.5,1.5,0,0,0-.13-.33c0,.09,0,.24,0,.42,0,.47,0,.53,0,.78a4,4,0,0,0,.11.63c0,.13.07.3.1.41s-.08.47-.11.7,0,.38,0,.58a8.2,8.2,0,0,0-.89-.73,11.49,11.49,0,0,1,.87,1c0,.47-.08.93-.11,1.4s0,.66,0,1a2.42,2.42,0,0,0-.89.13,5.26,5.26,0,0,1,.31-1.5,4,4,0,0,0-.44,1.2c0,.13,0,.25-.05.37l-.23.12,0-.09a8.82,8.82,0,0,0-.5-1.14,26.72,26.72,0,0,0,.12-4.1,24.63,24.63,0,0,0-.46-3.68C21.53,10,21.91,9,22.35,8c-.39.66-.82,1.46-1.25,2.38-.18-.81-.38-1.53-.57-2.14.14.67.3,1.5.43,2.44q-.35.77-.67,1.64c0-.18-.06-.34-.11-.52a38.63,38.63,0,0,0-1.62-5.16,43.32,43.32,0,0,1,1.61,6,25.8,25.8,0,0,0-.76,2.52,29.08,29.08,0,0,0-.6,3.23l-.1-.09.1.12c0,.37-.08.7-.11,1l-.1-.09.1.11a5.88,5.88,0,0,0,0,1.37,7.47,7.47,0,0,0,.23-1.17,3.3,3.3,0,0,1,.35.52,3.37,3.37,0,0,1,.36,1.1.3.3,0,0,0,.49-.18,8.31,8.31,0,0,1-.13-.94c.11.22.2.44.27.64a1.28,1.28,0,0,0,.66.06l.05,0v0h.18s0,0,0,0l0,0h0v0h.19l-.06-.13.07,0c0,.05,0,.11,0,.16h.21c0-.07,0-.16,0-.23l.07,0c0,.08.08.17.11.25h.67a1,1,0,0,0,.33-.19,2.26,2.26,0,0,1,.29-.29l.3,0c0,.1,0,.21,0,.31h.26c0-.1,0-.19,0-.29h.18a4.2,4.2,0,0,1,1.06.33v0h.12a2,2,0,0,0,2-.54c0-.23,0-.5,0-.77a2.83,2.83,0,0,1,.15.27,2.86,2.86,0,0,1,.27,1,3.25,3.25,0,0,0,.81.31,3.58,3.58,0,0,0,2.23-.23,1.67,1.67,0,0,1,.05-.18c0,.09,0,.18,0,.26h.19c0-.22,0-.45,0-.68s.31-.28.29-.3a.64.64,0,0,0-.29.14,39.57,39.57,0,0,1,.75-5.71c.06.49.12,1,.17,1.47.16,1.73.24,3.39.25,5l.47,0q0-.74,0-1.5a36.29,36.29,0,0,0-.69-5.65,38,38,0,0,1,1.08-3.84Q33,8.81,33.42,7.82ZM23.86,6.26c0-.09,0-.14,0-.18s0,0,.06,0,0,0,0,.1a.65.65,0,0,0,0,.08.24.24,0,0,1-.07.17A.72.72,0,0,0,23.86,6.26Zm.44,4.68a3.24,3.24,0,0,0,.06-.34c0,.35.1.7.14,1.06a2.41,2.41,0,0,0-.29.4,1.38,1.38,0,0,0-.09.25c0-.14,0-.28,0-.41h0a4.27,4.27,0,0,1,.06-.44C24.21,11.22,24.25,11.12,24.3,10.94Zm-.57,5.41c0-.37.08-.74.14-1.1s.12-.74.16-1.11a16.79,16.79,0,0,0,.09-1.71l.09-.16a2.36,2.36,0,0,1,.31-.41,61.71,61.71,0,0,1,.35,6.69c-.11-.18-.23-.37-.37-.56a8,8,0,0,0-.81-.93C23.7,16.83,23.7,16.59,23.73,16.35Zm-.35,3.25c0,.17,0,.33,0,.5l-.19.1h0a3.7,3.7,0,0,0-.63.1c0-.15,0-.3,0-.44A2.89,2.89,0,0,1,23.37,19.6ZM22.28,20c0,.14,0,.27,0,.39l-.08,0c0-.11-.06-.21-.09-.32Zm-1,.67v0c0-.14.07-.33.11-.55l0,0c0,.13,0,.25,0,.36ZM21.12,18l.06.12,0,.11C21.13,18.15,21.13,18.07,21.12,18Zm.09,1.85h0Zm0-.25c0-.25,0-.48,0-.73s0-.38.08-.56l0,.09c0,.47-.05.88-.08,1.24Zm.56.74.15-.13c0,.09,0,.17.05.25l-.11,0Zm-.05-.88c.06.19.1.36.15.54l-.21.17L21.54,20a6.43,6.43,0,0,1,.06-.89ZM21.57,19a4.16,4.16,0,0,0-.17.77h0c0-.26.08-.57.12-.91Zm-.28-.83,0-.16v.21ZM21,11.3c.14,1.12.26,2.39.3,3.79,0,1,0,1.84,0,2.61,0,.11-.1.22-.14.35l-.08-.13a38,38,0,0,0-.68-4.85C20.62,12.52,20.82,11.92,21,11.3Zm-.74,2.2c.09.51.18,1,.25,1.55a42.25,42.25,0,0,1,.35,4.21v0L20.59,19c.1.11.21.24.32.38a5,5,0,0,0,0,.8l-.1-.11c-.07-.23-.14-.47-.23-.72A11.32,11.32,0,0,0,19.4,17C19.62,16,19.91,14.81,20.31,13.5Zm-.94,6.66a3.07,3.07,0,0,0-.47-.52l.15-.87a7.26,7.26,0,0,1,.67,1,5.35,5.35,0,0,0,.09,1.32A3.19,3.19,0,0,0,19.37,20.16Zm.39-.77a6.43,6.43,0,0,0-.69-.72c.08-.45.17-.94.28-1.45l0-.19A13.39,13.39,0,0,1,20,18.4,5.35,5.35,0,0,0,19.76,19.39Zm.44.61c-.09-.13-.17-.26-.26-.38A8.27,8.27,0,0,1,20,18.47c.05.15.11.31.16.47a13.61,13.61,0,0,1,.44,1.82A6.42,6.42,0,0,0,20.2,20Zm.65.26.06.1c0,.08,0,.16,0,.23v0C20.92,20.51,20.88,20.38,20.85,20.26Zm.47.55,0,0,.09-.06v.05Zm.26-.16v-.09l0,0,0,.09Zm.35,0,.08,0c0,.09,0,.18.05.27C22,20.8,22,20.71,21.93,20.63Zm.33-.08h0c0,.1,0,.19,0,.27C22.31,20.74,22.27,20.64,22.25,20.55Zm.3.24c0-.08,0-.18,0-.27l.28,0A2,2,0,0,0,22.55,20.79Zm1.05-.57v-.08a2.33,2.33,0,0,1,.81-.18,1.93,1.93,0,0,0-.81.05c0-.14,0-.29,0-.43h0c0-.33,0-.67,0-1s0-.8.06-1.2a10,10,0,0,1,1.18,2c0,.37,0,.74,0,1.1A3.81,3.81,0,0,0,23.6,20.22Zm1.33.32c0-.31,0-.62,0-.93.05.12.11.23.16.36s.18.53.25.79A4.3,4.3,0,0,0,24.93,20.54Zm5.72-4.49.09-.11c0,.12,0,.25-.06.37l-.06,0-.18-.06A1,1,0,0,0,30.66,16.05Zm-2.41,4.09a3.28,3.28,0,0,0-.11.35,5.24,5.24,0,0,1,0-2.9c.06.68.09,1.27.12,1.77C28.24,19.64,28.24,19.9,28.24,20.15ZM27,17.95a5.31,5.31,0,0,1,.6,1.43c0,.14,0,.26.07.4a5.16,5.16,0,0,0,.05.63,8.44,8.44,0,0,0-.77-1.94C26.92,18.28,26.94,18.12,27,17.95Zm.18-3.75c.11-.35.22-.69.33-1,.08.36.15.73.22,1.1.21,1.16.34,2.25.43,3.19a5,5,0,0,0-.43,1.33c0,.08,0,.15,0,.23a5,5,0,0,0-.7-1.13,12,12,0,0,1,.43-2.1A10.52,10.52,0,0,0,26.61,18c-.09-.15-.19-.26-.28-.39A32.58,32.58,0,0,1,27.14,14.2Zm-1.42,3.4c0-.26-.07-.52-.09-.77.13.19.25.41.38.63-.06.3-.11.58-.16.87C25.81,18.08,25.76,17.85,25.72,17.6Zm.61,2.89c-.1-.36-.19-.75-.28-1.14s.13-.93.22-1.42c.08.16.17.31.25.48s-.07.39-.09.59l-.07,0,.07.06s0,.08,0,.12A10.14,10.14,0,0,0,26.33,20.49Zm.55-1.21,0,.12,0,0S26.88,19.31,26.88,19.28Zm1.19,1.48h0v0Zm.88,0q0-.19,0-.39a9.41,9.41,0,0,1,.09-1,4.16,4.16,0,0,0-.18.73c-.05.35-.05.66-.07.66s0-.18,0-.42a2.27,2.27,0,0,0-.11-.4c0,.12,0,.25,0,.39s0,.28,0,.4l-.2,0c0-.18,0-.37,0-.56s0-.11,0-.16A3.05,3.05,0,0,1,29.27,19a4.37,4.37,0,0,0,.05.44,5.65,5.65,0,0,0,.17.71,2.16,2.16,0,0,0-.36.73Zm.58-.49,0,0q.09.26.22.54h-.38A1.89,1.89,0,0,1,29.53,20.31Zm.61.51c0-.07,0-.16,0-.23a8.55,8.55,0,0,0,.25-1.07,3,3,0,0,0-.06-1.28c0-.13-.09-.28-.12-.27a4.8,4.8,0,0,0,0,.58,2.48,2.48,0,0,1-.15.61,3,3,0,0,0-.11.45v-.18c0-.21,0-.54-.08-.91h0l0-.14c0-.36,0-.72.09-1.08,0-.1,0-.21,0-.31s0-.2.05-.31,0-.19.06-.28a.72.72,0,0,0,.58.08l.07,0a26.87,26.87,0,0,0-.26,3.94A1.41,1.41,0,0,0,30.15,20.82Z"/><path class="cls-1" d="M67.55,12.93c-.12-.83-.26-1.62-.42-2.39.31-1.56.65-3.07,1-4.49-.4,1.22-.78,2.57-1.13,4a45.21,45.21,0,0,0-1.45-5.24,55.51,55.51,0,0,1,1.32,5.8c-.19.82-.37,1.65-.53,2.53-.09.47-.15.92-.22,1.37a40.81,40.81,0,0,0-.25-6.86A38.62,38.62,0,0,0,64.13,0,54.2,54.2,0,0,1,65.6,8.11a56.08,56.08,0,0,1,.22,8.69l0,.2c0-1.09,0-2.23-.12-3.43a44.34,44.34,0,0,0-1.54-8.71,55.89,55.89,0,0,1,1.27,9.23c.09,1.68.09,3.26,0,4.75l-.06-.06.05.09c0,.3,0,.6,0,.89a2,2,0,0,0-.26-.17,2,2,0,0,1,.25.26v.11a1.73,1.73,0,0,0-.46.38l-.09-2.39a6,6,0,0,1,.26-.86,3.39,3.39,0,0,0-.28.5c-.05-1.47-.11-2.94-.16-4.39l-.07-2a1.32,1.32,0,0,0,.2-.31,1.72,1.72,0,0,0-.09-1.4c0-.05,0-.13,0-.23s0-.18,0-.25a.93.93,0,0,0-.2-.47l0-.05c-.09-.12-.1-.18-.15-.24a1.45,1.45,0,0,0-.21-.19C64,8,63.91,7.89,63.9,7.9l0,.05a.93.93,0,0,0,.13.19l0,0s.08.1.07.11h0s0,0,0,.05.05.15.13.25a.28.28,0,0,1,.05.11s0,0,0,0,0,0,0,0l-.15-.15a.26.26,0,0,0,.05.11l.11.13a.07.07,0,0,1,0,.05s0,0,0,0-.06-.11-.11-.11a0,0,0,0,0,0,0s0,0,0,.05a.1.1,0,0,1,0,0s-.05,0-.08.07a.15.15,0,0,0,0,.11.3.3,0,0,0,0,.13s0,.06,0,.09,0,0,0,.05,0,0,.05.09,0,0,0,.05h-.05a.09.09,0,0,0,0,.05c0,.06,0,.12,0,.12a.31.31,0,0,1-.09-.12c-.06-.11-.07-.2-.09-.2s0,.05,0,.05,0,0-.05-.09,0-.06-.05-.07-.09,0-.09,0,.05.06,0,.09l0,0,0,0s0,0,0,.09a.27.27,0,0,1,0,.08s0,0,0,.07,0,.06.09.11a.57.57,0,0,0,.16.1h0s0,0,0,0,0,0,.05,0a.2.2,0,0,1,.07.08L64,10c-.1-.06-.16-.11-.17-.09s0,0,0,.05.06,0,.11.08a.19.19,0,0,1,.07.09l0,0s0,0,0,.07a.83.83,0,0,0,.12.12l0,0s0,0-.08,0h0s0,0,.07.07a.63.63,0,0,1,.11.13,1.25,1.25,0,0,1,.11.19.71.71,0,0,0-.2-.15s-.08,0-.09,0,0,0,.05.08l.07.08a.53.53,0,0,1,0,.08c0,.07.07.11.07.12s-.07,0-.08,0,0,0,0,.07l.08.05.07,0,.13.12.07,2.06c.05,1.52.11,3.06.17,4.6a4.82,4.82,0,0,0-.18.58,8.48,8.48,0,0,0-.2,2.31c0-.61-.11-1.23-.21-1.85s-.2-1.06-.32-1.51a26.85,26.85,0,0,0,0-3.12c0-.63-.09-1.23-.16-1.8a2.36,2.36,0,0,1,.34-.16,1.47,1.47,0,0,0,.42-.28l-.36.16c-.18.07-.23.08-.38.14l0,0a25.53,25.53,0,0,0-1-4.39,39.11,39.11,0,0,1,.67,4.55l-.06,0c-.14.13-.1.17-.26.32a3.11,3.11,0,0,0-.25.22l-.12.14v0c0-.12,0-.25-.07-.37-.1-.43-.22-.85-.35-1.27a1.39,1.39,0,0,0,.08-.34,1.44,1.44,0,0,0-.26-.92,1,1,0,0,1-.23-.39,1.09,1.09,0,0,1,0-.11,1.83,1.83,0,0,0-.21-.59,1.91,1.91,0,0,0-.46-.37,1.85,1.85,0,0,0-.28-.16c.21-.94.43-1.87.66-2.76-.27.84-.54,1.75-.79,2.7-.07,0-.15-.05-.16,0s0,.05.06.07l.08,0c-.08.3-.16.61-.24.93a45.39,45.39,0,0,0-1.32-4.67c.44,1.55.86,3.27,1.21,5.15C60.19,11,60,12,59.79,13A55.6,55.6,0,0,0,59,20a7.93,7.93,0,0,0-.29-.92,9.44,9.44,0,0,1,.41-1.95,7.58,7.58,0,0,0-.58,1.53,7.88,7.88,0,0,0-.6-1.08c0-.13,0-.25,0-.38s0-.51,0-.77.08-.74.14-1.1.12-.74.16-1.11a16.79,16.79,0,0,0,.09-1.71l.09-.16a4.21,4.21,0,0,1,.37-.48,1.13,1.13,0,0,0,.18-.61,2.1,2.1,0,0,1-.26.48,2.47,2.47,0,0,0-.3.41,1.37,1.37,0,0,0-.09.25c0-.14,0-.28,0-.41h0a4.27,4.27,0,0,1,.06-.44c0-.24.09-.34.13-.52a3.39,3.39,0,0,0,.09-.81,2.78,2.78,0,0,1-.15.7,3.84,3.84,0,0,0-.17.44,1.4,1.4,0,0,0,0,.65,16.61,16.61,0,0,1-.14,2.2q-.07.55-.18,1.1c0,.08,0,.17,0,.25l0-.16a8.23,8.23,0,0,1-.06-.83,2.76,2.76,0,0,0,0-.76,1.5,1.5,0,0,0-.13-.33c0,.09,0,.24,0,.42,0,.47,0,.53,0,.78a4,4,0,0,0,.11.63c0,.13.07.3.1.41s-.08.47-.11.7,0,.33,0,.49V17c0,.53-.09,1.06-.12,1.6,0,.28,0,.56,0,.84a7.62,7.62,0,0,0-.46-1.08c-.07-.14-.15-.27-.23-.4s0-.49,0-.74c0-.47.05-1,.09-1.5A109.2,109.2,0,0,1,58.33,4.43a66.46,66.46,0,0,0-1.24,7.65c-.1,1-.18,1.93-.23,2.83,0-.42,0-.83-.07-1.27a43.89,43.89,0,0,0-.9-6.11c.38-1.13.77-2.17,1.17-3.1-.41.84-.83,1.79-1.23,2.84-.19-.82-.38-1.62-.58-2.34.18.8.35,1.67.5,2.56a33.8,33.8,0,0,0-1.06,3.36c-.23.89-.41,1.76-.56,2.59,0-.08-.05-.16-.07-.23S54,13,54,13c0-.33-.07-.52-.1-.7a5.12,5.12,0,0,1-.05-.76,3.43,3.43,0,0,0,0,.75,3.7,3.7,0,0,0,.1.68,1.58,1.58,0,0,0,.12.39h0l.06.21c-.06.33-.11.66-.15,1l-.19-.26c.06.13.12.23.18.33a34.21,34.21,0,0,0-.32,3.64c-.07-.14-.12-.28-.2-.42l-.15-.26q0-.54,0-1.15c.09-.8.16-1.66.22-2.56.08-1.42.08-2.76,0-4a23.74,23.74,0,0,1,1.82-2.59,19.93,19.93,0,0,0-1.83,2.25,45.07,45.07,0,0,0-1-7.71,64.56,64.56,0,0,1,.61,7.32c0,.32,0,.63,0,.94l-.24.38a38.78,38.78,0,0,0-1.67-7.09,54.41,54.41,0,0,1,1.4,7.53c-.26.45-.52,1-.77,1.47q0-.36-.09-.72a1.18,1.18,0,0,0,.1-.43,2.14,2.14,0,0,1-.12.26c0-.31-.08-.62-.14-.93-.13-.77-.28-1.51-.44-2.23.25-.35.5-.67.72-1-.23.24-.48.53-.75.84-.23-1-.49-2-.76-2.85.23.95.44,2,.63,3a19.73,19.73,0,0,0-1.42,2c-.09-.67-.17-1.34-.28-2-.08-.46-.16-.93-.25-1.39a.46.46,0,0,0,.08-.14.66.66,0,0,1,.1-.12l.08-.08.06-.07a.22.22,0,0,0,.06-.08s0,0,0,0l-.06,0s-.06,0-.07,0,.05-.09,0-.1,0,0-.06,0,0-.06,0-.07,0,0,0-.07,0,0,0,0,0,0-.1.08-.15.19-.15.19a.67.67,0,0,1,.07-.12c.05-.08.1-.14.1-.15h0s0,0,0-.08,0,0,0-.06,0,0,0-.06,0,0,0-.06-.08.07-.1.06,0-.08,0-.14.05-.06.07-.11,0-.08,0-.08,0,0-.06,0,0-.07,0-.08.12-.2.11-.21-.09.06-.1.07a2.65,2.65,0,0,0-.18.21.55.55,0,0,1,.06-.14,1.42,1.42,0,0,1,.08-.17c.05-.08.08-.08.1-.14s0,0,0-.14,0-.12,0-.14-.06,0-.07,0,0,0,0-.08,0-.1-.06-.1,0,0,0,.1a.34.34,0,0,1-.1.15s0-.07,0-.07a.54.54,0,0,0-.1.17c-.07.17-.08.31-.1.3s0,0,0-.07,0-.06,0-.08l-.06,0-.06,0s0-.06,0-.15a.34.34,0,0,0,0-.1c0-.07,0-.07-.06-.15a.27.27,0,0,1,0-.17l0-.06c0-.06,0-.14,0-.15s0,0-.08.06-.14.15-.17.14,0-.06,0-.1,0-.06.07-.11a.24.24,0,0,0,0-.17l0,.06c0,.07-.11.17-.12.17s0,0,0-.07,0-.12.06-.17,0-.13,0-.21,0-.07,0-.08h0s0-.05,0-.07l.07-.17a1.07,1.07,0,0,0,.06-.18c0-.05,0-.08,0-.08a1.87,1.87,0,0,0-.37.66,1.14,1.14,0,0,0-.08.29,3.06,3.06,0,0,1,0,.41c0,.13-.06.12-.07.22s0,.12.07.32,0,.16.06.29,0,.15,0,.28c0,.3,0,.37.06.43a1,1,0,0,0,.45.59c.09.47.18.95.26,1.42,0,.19.05.38.08.57a5.07,5.07,0,0,0-.51-.75,2.91,2.91,0,0,0-.58-.56,2.61,2.61,0,0,0-.6-.32,2.8,2.8,0,0,1,.58.58,6.09,6.09,0,0,0,.39.56,1.55,1.55,0,0,0,.48.43.76.76,0,0,1,.17.1.56.56,0,0,1,.09.1c.07.47.14.94.2,1.41a19.28,19.28,0,0,0-1.87,3.87l0,.14c-.13-.33-.27-.65-.4-.94.11.38.21.8.31,1.21-.17.51-.31,1-.43,1.5L47,13l0-.46a.78.78,0,0,1,.17-.18c.12-.09.17-.06.3-.16s.1-.14.25-.28a1.5,1.5,0,0,1,.2-.16,1.94,1.94,0,0,1,.37-.17,1.47,1.47,0,0,0,.42-.28l-.36.16c-.18.07-.23.08-.38.14a1.34,1.34,0,0,0-.38.22c-.14.13-.1.17-.26.32a3.13,3.13,0,0,0-.25.22l-.08.09L46.93,11a1.37,1.37,0,0,0,.2-.32A1.78,1.78,0,0,0,47,9.19c0-.05,0-.14,0-.23s0-.19,0-.26a1,1,0,0,0-.21-.48l0-.06c-.09-.12-.11-.18-.15-.25a1.49,1.49,0,0,0-.22-.19c-.11-.09-.22-.18-.23-.17s0,0,0,.06a1,1,0,0,0,.14.19l0,0s.08.1.07.11h0s0,0,0,.06.05.15.14.26a.29.29,0,0,1,.06.11s0,0,0,0,0,0,0,0l-.15-.15a.26.26,0,0,0,.06.11l.11.14a.08.08,0,0,1,0,.06s0,0,0,0-.06-.11-.11-.11a0,0,0,0,0,0,0s0,0,0,.06a.1.1,0,0,1,0,0s-.05,0-.08.07a.16.16,0,0,0,0,.11.31.31,0,0,0,0,.14s0,.06,0,.1,0,0,0,.06,0,0,.06.1,0,0,0,.06,0,0-.06,0a.09.09,0,0,0,0,.06c0,.06,0,.12,0,.12a.32.32,0,0,1-.1-.12c-.06-.11-.07-.21-.1-.21s0,.06,0,.06,0,0-.06-.1,0-.06-.06-.07-.09,0-.1,0,.05.06,0,.1l0,0,0,0s0,0,0,.1a.28.28,0,0,1,0,.08s0,0,0,.07,0,.06.1.11a.59.59,0,0,0,.16.1h0s0,0,0,0,0,0,.06,0a.2.2,0,0,1,.07.08l-.14-.07c-.1-.06-.16-.11-.18-.1s0,0,0,.06.06,0,.11.08a.19.19,0,0,1,.07.1l0,0s0,0,0,.07a.85.85,0,0,0,.12.12l0,0s0,0-.08,0h0s0,0,.07.07a.65.65,0,0,1,.11.14,1.29,1.29,0,0,1,.11.19.73.73,0,0,0-.21-.15s-.09,0-.1,0,0,0,.06.08l.07.08a.54.54,0,0,1,0,.08c0,.08.08.12.07.12s-.07,0-.08,0,0,0,0,.07l.08.06.07,0,.14.12,0,1.06-.08-.11c-.07-.1-.12-.17-.17-.25a1.8,1.8,0,0,1-.12-.25,6.41,6.41,0,0,0-.32-.64,3,3,0,0,0-.42-.57,2.41,2.41,0,0,0,.1.46,2.21,2.21,0,0,0,.4.74l.31.34a1.62,1.62,0,0,1,.23.28,1.2,1.2,0,0,1,.08.14l0,.94,0,.64a.9.9,0,0,0-.34-.39,2,2,0,0,0-.43-.16L45.86,13c-.15-1.6-.34-3.17-.57-4.69C45.62,7.17,46,6,46.33,5c-.37,1-.74,2-1.09,3.06-.13-.84-.27-1.68-.42-2.49.11.92.21,1.89.3,2.85A65,65,0,0,0,43.33,15c-.14.67-.25,1.3-.37,1.95,0-.62-.08-1.17-.12-1.63,0,1.1,0,1.87,0,2.44,0,.18-.06.36-.09.54l-.16-.18a21.7,21.7,0,0,0-.16-2.62l0-.12.93-2.29a7.51,7.51,0,0,0-1.1,1.59,18.61,18.61,0,0,0-.91-3.5L41.28,11c.19-.36.32-.58.3-.58a3.57,3.57,0,0,0-.34.49c-.12-.3-.24-.59-.37-.86-.16-.85-.34-1.65-.54-2.4.33-.73.66-1.42,1-2.06-.35.52-.71,1.12-1.07,1.76-.32-1.18-.66-2.24-1-3.15.25.9.54,2.07.82,3.46l-.26.46a19.3,19.3,0,0,0-2.12-2.8,25,25,0,0,1,2,3.09q-.4.77-.78,1.62L39,9.45c-.08.26-.16.55-.25.85s-.39.91-.58,1.4A30.32,30.32,0,0,0,37,15.77c0-.33,0-.66,0-1a36.05,36.05,0,0,1,.6-7,22.77,22.77,0,0,0-.81,4,24.48,24.48,0,0,0,0,5.14A30.8,30.8,0,0,0,36.32,20a2.68,2.68,0,0,0-.21.78,3.64,3.64,0,0,0-.08-.57,4,4,0,0,0-1-1.9,4.43,4.43,0,0,1,.67,1.35c0,.08,0,.14,0,.21a1.19,1.19,0,0,0-.25.15,2.37,2.37,0,0,0-.52-.51l.09-.07-.1.06-.23-.15.18.18a2.2,2.2,0,0,0-.28.2,2.35,2.35,0,0,0-.34-.33,2.06,2.06,0,0,1,.26.4,2,2,0,0,0-.2.22,1.79,1.79,0,0,0-.34.71h-.18q0-.17,0-.35a7.22,7.22,0,0,1,0-.89,3.28,3.28,0,0,0-.13.66c0,.31,0,.58,0,.58s0-.16-.07-.37a1.78,1.78,0,0,0-.14-.35c.06-1.07.18-2.86.49-5.16s.67-4.12.94-5.35a35.8,35.8,0,0,0-1,4A33.73,33.73,0,0,0,33.32,21v.1h0a4.29,4.29,0,0,0,1.88-.41,1.2,1.2,0,0,1,.14-.39,2.6,2.6,0,0,1,.15.53,2.55,2.55,0,0,0,.65.23A2.61,2.61,0,0,0,37.48,21a.23.23,0,0,0,0,.09s0,0,0-.1a3.43,3.43,0,0,0,.42-.16,1.13,1.13,0,0,1,.15-.43l.08-.11c0,.19,0,.39,0,.56h.24l0,.16,0-.16h.06c0,.05.05.11.07.16h.25a3.36,3.36,0,0,0-.22-.45c0-.3,0-.59.07-.87,0,.08.1.14.14.22A5.31,5.31,0,0,0,38.78,21H39c0-.2-.06-.41-.08-.65.11.22.2.44.27.64h.86a1.3,1.3,0,0,0,.42-.24,2.74,2.74,0,0,1,.56-.53l-.05.4a3,3,0,0,0-.53.29,4.1,4.1,0,0,1,.51-.17h0l.14,0a1.47,1.47,0,0,0,0,.47,1.34,1.34,0,0,0,.1-.46h0l0-.08a3.42,3.42,0,0,1,1.05,0c0,.23,0,.35,0,.35l.79,0c0-.06,0-.13,0-.2l.24.1a1.56,1.56,0,0,0,1.54-.42c0-.26,0-.54,0-.85a10.2,10.2,0,0,1,.36,1.11.39.39,0,0,0,.41.14.32.32,0,0,0,.13-.08c0,.07,0,.15,0,.22l.47,0c0-.25,0-.5,0-.75a3.69,3.69,0,0,1,.1.55l.24.11s0,.07,0,.1h.19l0,.32,0-.32h0a4.1,4.1,0,0,0,.6.19A4.54,4.54,0,0,0,50.07,21v.09a3.23,3.23,0,0,0,1.3-.25c0,.17,0,.27,0,.27s0-.11,0-.28l.16-.07a.88.88,0,0,1,.14-.37l0,0c0,.15,0,.31,0,.45l.3,0c0-.28,0-.57.07-.87a3.45,3.45,0,0,1,.52.15,3.46,3.46,0,0,0-.06.77,2.76,2.76,0,0,0,.2-.73l.21.11a4.39,4.39,0,0,0,0,.71,2.94,2.94,0,0,0,.13-.66,4.17,4.17,0,0,1,.57.36s0,.06,0,.08h.15a1.5,1.5,0,0,0,.81.14,1.36,1.36,0,0,0,.77-.37c0-.15,0-.32,0-.48h.14c.07.32.13.62.18.89a.46.46,0,0,0,.43.27.36.36,0,0,0,.26-.2,6.51,6.51,0,0,1-.12-.86l.26.08c0,.2,0,.42,0,.62h.27a2.38,2.38,0,0,0,0-.37v-.12a3.32,3.32,0,0,1,.54.34l.23.09s0,.09,0,.14h.26s0-.06,0-.08H58a1.06,1.06,0,0,0,.6-.29c0-.25,0-.53,0-.83.11.42.19.8.25,1.14l0,0v0h0a.33.33,0,0,0,.27.14.28.28,0,0,0,.21-.16,5.08,5.08,0,0,1-.1-.82,1.61,1.61,0,0,1,.15.21,1.85,1.85,0,0,1,.19.6,2,2,0,0,0,.51.18,2.11,2.11,0,0,0,1.29-.17h0l0,.24a3.3,3.3,0,0,0,1.46-.32h0v0H63v0h0v-.06c0-.1,0-.21,0-.31l0,0c0,.14,0,.28,0,.41l.29,0s0-.1,0-.15a4.06,4.06,0,0,0,.11-.46c0,.2.07.4.09.58a1.14,1.14,0,0,0,.7.3.9.9,0,0,0,.59-.2v.05H65v-.13a2.36,2.36,0,0,1,.42-.45c0,.15,0,.3,0,.44h.14c0,.1,0,.21,0,.31l.33-.09c0-.07,0-.14,0-.21a2,2,0,0,0,.49.17,2.17,2.17,0,0,0,1.37-.2v0s0,0,0,.05H68c0-.2,0-.41,0-.61h0A44.52,44.52,0,0,0,67.55,12.93Zm-3.08-2.31s0,0,0-.07l0,0s0-.06,0-.11-.06-.06-.05-.08,0,0,.07,0,0,0,0,.07a.81.81,0,0,1,0,.13.77.77,0,0,0,0,.11ZM49.06,6.12c0-.09,0-.14,0-.18s0,0,.06,0,0,0,0,.1a.64.64,0,0,0,0,.08.24.24,0,0,1-.07.17A.72.72,0,0,0,49.06,6.12Zm-2.29,4.25s0,0,0-.07l0,0s0-.07,0-.11-.06-.07-.06-.08,0,0,.07,0,0,0,0,.07a.84.84,0,0,1,0,.14.81.81,0,0,0,0,.11ZM33.38,20.73c0-.18,0-.42,0-.71a3.07,3.07,0,0,1,0,.34,3.11,3.11,0,0,1,0,.36Zm1.89-.56a1.18,1.18,0,0,0-.27.46,1.86,1.86,0,0,0-.13-.44,2,2,0,0,0-.24-.41,2,2,0,0,1,.25-.24,2.23,2.23,0,0,1,.39.53l0,.08Zm.25,0,0,0a2,2,0,0,1,.2-.2,4.66,4.66,0,0,1,.13.91A2.34,2.34,0,0,0,35.53,20.13Zm19.35-9c.27-1.19.59-2.29.93-3.33a55.38,55.38,0,0,1,.72,6.35c.06,1.17.08,2.3.08,3.38a7.29,7.29,0,0,0-.62-.76,10.57,10.57,0,0,1,.58,1,4.65,4.65,0,0,0-.51,1.39,5.29,5.29,0,0,0-.09.75h-.09c0-.29-.09-.59-.14-.88s-.11-.69-.18-1l0-.08,0-.16c.08-.43.13-.45.14-.66a.74.74,0,0,0,0-.09c.07-.29.15-.56.22-.8-.09.17-.17.38-.26.58a1.64,1.64,0,0,1,0-1.18,1.12,1.12,0,0,0-.23.72c0,.25.13.31.14.62,0,0,0,0,0,0s-.09.27-.14.4c0-.14-.05-.28-.09-.42-.08-.34-.16-.68-.25-1a5.18,5.18,0,0,0-.36-1l-.24-.46-.06-.14c0-.12,0-.25,0-.37,0,.09,0,.2,0,.3l-.1-.22q.1-.67.23-1.36l.09-.4,0,0C54.7,11.93,54.78,11.54,54.87,11.14Zm.59,7.18.1.69v.11c0-.15-.1-.3-.16-.45S55.44,18.43,55.46,18.31Zm-1.14-3.43-.11-.11q0-.32.09-.64l.1.23C54.37,14.54,54.35,14.71,54.32,14.89Zm.12-.42v0l.23.47a5.09,5.09,0,0,1,.33,1L55,16l-.27-.5a2.77,2.77,0,0,0-.34-.54C54.42,14.81,54.43,14.64,54.44,14.47Zm-1.27-4c0,.67,0,1.31,0,1.94,0-.46-.09-.93-.14-1.42l0-.17Zm-.45.86v.1c.16,1.59.24,3,.27,4.32,0,.44-.06.84-.1,1.23a9.31,9.31,0,0,0-.75-1c0-1-.09-2-.2-3Q52.33,12.05,52.72,11.28Zm-2.37,8.91-.07.09c0-.26,0-.52.06-.8l0,0,0,0c.06-.62.15-1.28.28-2,0,.34-.06.67-.08,1,0,.52,0,1,0,1.55l-.08.07c0-.09,0-.2,0-.29A2.78,2.78,0,0,0,50.35,20.19Zm-.92-.63a2.72,2.72,0,0,0-.28.3,2.64,2.64,0,0,0-.25.39c0-.48.08-1.2.21-2.07l.12-.09,0,.09a7.32,7.32,0,0,1,.25,1.24,3.46,3.46,0,0,0-.36-.47A3.21,3.21,0,0,1,49.43,19.56ZM48,15.34l.12.25,0,0Zm.13.26.53,1.11.25.55c-.06.36-.11.72-.14,1.05l-.06,0a16.91,16.91,0,0,0-.33-1.75c-.08-.33-.17-.65-.27-1Zm2.06,1.81c0-.1.08-.22.23-.59-.1.52-.18,1-.23,1.48C50.16,18,50.17,17.71,50.17,17.41Zm-.11,1.71a3,3,0,0,0-.34.21,9.49,9.49,0,0,1,.36-1.63C50.08,18.17,50.06,18.65,50.06,19.12ZM49.84,15a1,1,0,0,1,.11.16l0,.09q0,.82.06,1.63c-.05.27-.12.62-.19,1.1s-.15.9-.23,1.46l0,0A12.15,12.15,0,0,0,49.34,18l.18-.13-.19.09,0-.18c0-.09-.05-.17-.07-.25A20.75,20.75,0,0,1,49.84,15Zm.06-.18.07-.22c0,.13,0,.25,0,.38A.79.79,0,0,0,49.89,14.78Zm-.3,4.81v0l0,0v.06ZM49.2,18l-.08,0,0-.18Zm-.47.51v.14l0-.12Zm1.12,1.65a2.82,2.82,0,0,0-.18-.42c0-.11,0-.22,0-.32a2.85,2.85,0,0,1,.35-.3c0,.16,0,.32,0,.48s0,.22,0,.33-.12.22-.17.34C49.86,20.24,49.86,20.21,49.85,20.17Zm.9-.16.07-.06.08,0a1.26,1.26,0,0,1,.1.15l-.16.17a1.21,1.21,0,0,0-.09.15C50.74,20.28,50.74,20.15,50.74,20Zm.19-.09.3,0L51,20Zm.46-1.6c0-1-.1-1.94-.17-2.64a26.89,26.89,0,0,0,0,3.46c0,.08,0,.29.06.59a2.55,2.55,0,0,0-.38.11s0,0,0-.05-.06,0-.13,0l-.06-.06,0,.07-.09,0c0-.46,0-.91,0-1.37,0-.72,0-1.44.11-2.16.09-.38.17-.75.29-1.14s.27-.88.42-1.3l.13-.32a50,50,0,0,1,0,6.08l-.35,0C51.41,19.3,51.41,18.83,51.4,18.33ZM51.17,14c.06-.55.08-1.09.08-1.64l.09-.16a1.71,1.71,0,0,1,.2-.28c0,.31.06.61.09.91C51.47,13.22,51.32,13.61,51.17,14Zm.27-3.14V11c0,.26,0,.51.07.77a1.19,1.19,0,0,0-.18.27,1.38,1.38,0,0,0-.09.25c0-.14,0-.28,0-.41h0a4.27,4.27,0,0,1,.06-.44c0-.24.09-.34.13-.52Zm-.37-2.47q.19,1.09.35,2.26l0,.1a3.85,3.85,0,0,0-.17.44,1.4,1.4,0,0,0,0,.65,16.61,16.61,0,0,1-.14,2.2c0,.13,0,.26-.07.39s-.14.25-.21.37c0-.13,0-.26,0-.4a2.76,2.76,0,0,0,0-.76,1.5,1.5,0,0,0-.13-.33c0,.09,0,.24,0,.42,0,.47,0,.53,0,.78a3.31,3.31,0,0,0,.08.48,6.83,6.83,0,0,0-.4.92,5.16,5.16,0,0,0-.15.53c0-.71,0-1.43-.09-2.14.06-.17.12-.34.19-.52.22-.59.44-1.07.6-1.42A13.06,13.06,0,0,0,50,13.84c-.06-.89-.14-1.77-.24-2.66a.56.56,0,0,1,.06-.1.48.48,0,0,1,.11-.1,1.32,1.32,0,0,0,.29-.43c.13-.24.14-.33.24-.56a2.62,2.62,0,0,1,.36-.58,1.54,1.54,0,0,0-.37.32,2.65,2.65,0,0,0-.36.56,5.84,5.84,0,0,0-.34.82c0-.17,0-.34-.07-.51A23.19,23.19,0,0,1,51.07,8.41ZM49.6,10.75q.2,1.62.32,3.25c-.08.18-.16.37-.24.57l-.16-.12c-.19-.14-.29-.16-.38-.28A.66.66,0,0,1,49,13.8a.86.86,0,0,0,.16.56c.08.1.12.09.33.26l.11.1a11.92,11.92,0,0,0-.63,2l0,.1c0-.08-.06-.17-.1-.25a5.82,5.82,0,0,0-.7-1.11h0l-.23-.27-.09-.28A22.85,22.85,0,0,1,49.6,10.75Zm-1.9,4.56h0c.06.26.11.53.17.8a13.1,13.1,0,0,0-.53,1.59c-.06.23-.1.43-.15.64l0-.69A22.31,22.31,0,0,1,47.71,15.3ZM47,19.18c0-.08,0-.16-.06-.24,0-.28.07-.56.12-.86l0,.65Zm.1.15v.26l0-.15Zm-.29,1.06,0,.16v-.26S46.85,20.36,46.85,20.39Zm-.13-2a6.52,6.52,0,0,0-.56-1c0-.79-.07-1.59-.12-2.37l.24,0a1.1,1.1,0,0,1,.55.08.72.72,0,0,1,.16.11l0,1.24C46.89,17.17,46.79,17.79,46.72,18.37Zm-.51-5.1a1.61,1.61,0,0,1,.59.31,1.1,1.1,0,0,1,.14.15L47,15.21a.61.61,0,0,0-.08-.09,1,1,0,0,0-.56-.22,1.69,1.69,0,0,0-.32,0c0-.59-.1-1.16-.15-1.74C45.94,13.2,46,13.2,46.2,13.27ZM42.47,20c0-.09,0-.18,0-.29h0Zm.2-1.42c-.06.38-.11.74-.16,1.11h0c0-.36,0-.8.05-1.28Zm-1.14,1.21-.17.05h0c0-.47.08-1,.1-1.68.06-.3.13-.57.21-.8a8.7,8.7,0,0,1,.71.83c0,.57,0,1.07,0,1.49a2.46,2.46,0,0,0-.79.09,5.45,5.45,0,0,1,.36-.69A4.19,4.19,0,0,0,41.54,19.79Zm-1.77-4.71-.19-.22c.18-.56.38-1.08.58-1.57s.41-.94.61-1.34a59.07,59.07,0,0,1,.39,6.9,11.7,11.7,0,0,0-.27-1.45,6.15,6.15,0,0,0-.43-1.21,5.82,5.82,0,0,0-.7-1.11h0Zm-.91,2.64a22,22,0,0,1,.7-2.81l.14.3a13.34,13.34,0,0,0-.76,2.1C38.91,17.45,38.89,17.58,38.86,17.71Zm2.48,2.35.08,0h0c0,.1-.07.2-.1.29Zm1-2.13a6.37,6.37,0,0,0-.7-.59c0-.09.06-.19.08-.27s.1-.28.42-1.07C42.29,16.69,42.35,17.34,42.38,17.93ZM42,15.09v.07c-.06.13-.12.25-.17.4a10.68,10.68,0,0,0-.41,1.88c0-.8,0-1.67,0-2.59-.05-1.1-.16-2.14-.3-3.14A22.09,22.09,0,0,1,42,15.09ZM40.16,8q.09.45.17.93c-.11-.2-.22-.39-.33-.58Zm-.3.7c.23.44.45.91.67,1.41,0,.17.05.33.08.5q.08.55.14,1.09a22.14,22.14,0,0,0-1.63,3.63,18.6,18.6,0,0,0-.55,2l-.32-.5c.1.19.2.4.3.62-.11.54-.2,1-.26,1.52a6.82,6.82,0,0,0-.57-.51,7.7,7.7,0,0,1,.55.68c0,.31-.07.61-.09.89a3.22,3.22,0,0,0-.41-.41l0,0,0,0-.16-.13.14.15-.15.11c.06-1.08.19-2.81.48-5,.09-.68.19-1.31.29-1.91A44.16,44.16,0,0,1,39.86,8.71ZM37.39,19.95h0Zm.06.37,0-.26v0l0,.06v0C37.45,20.19,37.45,20.25,37.45,20.32Zm.24-5c0-.2.1-.38.15-.57a37.3,37.3,0,0,0-.39,5.15l-.09-.11c0-.22-.07-.49-.11-.78l.15-.12-.15.09c0-.3-.08-.63-.12-1C37.28,17.12,37.46,16.22,37.69,15.3Zm-.63,3.78-.13.11.07-.43Zm-.72,1.67.07,0h-.08Zm.48,0q0-.15,0-.32c0-.18,0-.33,0-.49s.05-.41.08-.61l.17-.18c.07.36.14.67.21.92l-.06.07a1.73,1.73,0,0,0-.28.64Zm.35,0a1.56,1.56,0,0,1,.1-.43,1.26,1.26,0,0,1,.07-.13c.06.21.11.36.14.46v.08Zm.82-.45a1.09,1.09,0,0,0-.22.41,2,2,0,0,0-.09-.41,1.75,1.75,0,0,0-.1-.21l0-.29.16-.16a3.37,3.37,0,0,1,.38.51Zm.78-.8-.12-.13v-.07c.11-.48.14-.48.26-1l.07.17A5.35,5.35,0,0,0,38.76,19.51Zm.44.61c-.09-.13-.17-.26-.26-.38A8.27,8.27,0,0,1,39,18.59c.05.15.11.31.16.47a13.62,13.62,0,0,1,.44,1.82A6.43,6.43,0,0,0,39.2,20.12Zm1,.64c0-.17-.06-.34-.07-.52a6.51,6.51,0,0,1,.38-2.84A5.16,5.16,0,0,0,40,20.81a11.18,11.18,0,0,0-1-2.71c.26-1.06.28-1.45.56-2.35.07-.22.13-.39.18-.53l.53,1.11a10.87,10.87,0,0,1,.62,1.46,9.11,9.11,0,0,1,.3,1.69v.06L41.1,20A2.51,2.51,0,0,0,40.24,20.77ZM42,20.39a2.81,2.81,0,0,0-.62.12c0-.09,0-.18.08-.28s.08-.18.11-.28a2.85,2.85,0,0,1,.87-.23c0,.27,0,.49,0,.68A2.69,2.69,0,0,0,42,20.39Zm1.2.18c0-.32,0-.64.08-1,.09.2.19.39.27.61s.14.41.19.61A3.21,3.21,0,0,0,43.16,20.57Zm1.35-1a7.88,7.88,0,0,0-.05,1.06A16.74,16.74,0,0,1,44,18.36c0-.21-.05-.41-.07-.6A10.16,10.16,0,0,1,44.6,19C44.57,19.18,44.54,19.36,44.51,19.56Zm1,1a6.57,6.57,0,0,0-.6-1.51A9.26,9.26,0,0,1,45.29,17a8.19,8.19,0,0,0-.61,1.69,6.58,6.58,0,0,0-.77-1,16.78,16.78,0,0,1-.07-2.22,14,14,0,0,0,.2,5.27,6.48,6.48,0,0,0-.76-1.66c.09-1,.2-2,.34-3A58.44,58.44,0,0,1,45.16,8.8q.18,1.9.32,3.9v0c0,.27,0,.53.06.8,0,.45,0,.88.06,1.33l-.08,0,.08.05c0,.66.07,1.33.09,2l0,0,0,0c0,.57,0,1.12,0,1.68,0,.09-.07.19-.1.3a4.09,4.09,0,0,0-.54-.39,3.91,3.91,0,0,1,.5.54c0,.1-.05.21-.07.33A3.92,3.92,0,0,0,45.51,20.55Zm.2-1.24c0-.06,0-.11,0-.16l0,0c0,.35,0,.71,0,1.06A4.07,4.07,0,0,1,45.7,19.31Zm.53.16c0-.24,0-.48,0-.72s0-.71-.05-1.07a6.82,6.82,0,0,1,.47,1.3v0c0,.38-.05.74-.06,1.08a3.24,3.24,0,0,0-.18-.36C46.36,19.62,46.29,19.55,46.23,19.47Zm.6,1.27,0-.13c0,.07,0,.14,0,.2Zm.48,0c0-.13,0-.27,0-.41l0-1.35c0-.11.07-.24.12-.45.28-1.1.3-1.5.56-2.36.07.32.14.63.2,1,.09.51.17,1,.24,1.49A3.83,3.83,0,0,0,47.31,20.78Zm.94,0s0-.23-.06-.54a2.93,2.93,0,0,0-.14-.52c0,.15,0,.32,0,.5s0,.36,0,.52l-.37,0a3.81,3.81,0,0,1,.22-.94,3.74,3.74,0,0,1,.51-.91c0,.15,0,.3.06.45a5.3,5.3,0,0,0-.11.55C48.27,20.41,48.27,20.81,48.25,20.81Zm.19,0q0-.25,0-.5c0-.17,0-.32,0-.49,0,.34.08.68.11,1h.06Zm.75-.64a2.42,2.42,0,0,1,.29-.48l0,.1c0,.08,0,.14,0,.21,0,.27-.08.55-.11.84H49A2.43,2.43,0,0,1,49.19,20.17Zm.71.23c0-.12.09-.24.14-.35,0,.23,0,.44,0,.64l-.06.13A3.66,3.66,0,0,0,49.89,20.41Zm.41.34,0-.06a.47.47,0,0,1,0,.12A.25.25,0,0,1,50.3,20.75Zm.13.05q0-.13,0-.27s0,0,0-.06a1.55,1.55,0,0,1,.08-.15c0,.14,0,.28,0,.42h.11l0,.06Zm.84-.41a1.54,1.54,0,0,0-.19-.32,1.33,1.33,0,0,1,.21-.19h0c0,.12,0,.24,0,.38s0,.31,0,.44A1.4,1.4,0,0,0,51.27,20.39Zm.46-.14-.14.12a.87.87,0,0,0-.19.3c0-.21,0-.48,0-.8l.33,0C51.74,20,51.74,20.14,51.73,20.25Zm.45-.56h-.09c.08-1.12.11-2.33.08-3.63a12.85,12.85,0,0,1,.71,1.22c-.09,1.06-.19,1.91-.26,2.52A2.68,2.68,0,0,0,52.18,19.69Zm.61.15c.07-.34.14-.75.22-1.22,0,.51,0,.94,0,1.29Zm.3.13c.06-.48.12-1.12.16-1.9.13.3.24.62.35.95s0,.86,0,1.26A3.55,3.55,0,0,0,53.09,20Zm.76.49c0-.21,0-.43,0-.65.07.27.13.54.17.8Zm0-1.67c0-1.18.14-2.46.32-3.82l.11.15a20,20,0,0,0-.12,3.3,21.16,21.16,0,0,0,.21,2.14A10.22,10.22,0,0,0,53.87,18.79Zm.53-3.54a5.74,5.74,0,0,1,.46.57l.18.27c.07.29.13.58.19.87s.08.45.12.68-.11.32-.16.5a10.12,10.12,0,0,0-.77-1.39C54.39,16.21,54.39,15.72,54.4,15.25Zm.06,2.37c0-.26,0-.52,0-.76a16,16,0,0,1,.67,1.69c0,.22-.09.44-.13.68a11.06,11.06,0,0,0-.12,1.3A25.69,25.69,0,0,1,54.46,17.62Zm.89,2.3c0-.16,0-.31,0-.48,0,.16.07.31.11.46Zm.6.5L55.9,20H56C56,20.18,56,20.31,56,20.42Zm.28-.54a5.83,5.83,0,0,1,0-.71,5.32,5.32,0,0,1,.32-1.43l0,0c0,.75,0,1.47-.07,2.17Zm.56.17q.06-.81.08-1.69A9.22,9.22,0,0,1,57.45,20c0,.17.07.32.1.48s0,.08,0,.11A2.91,2.91,0,0,0,56.8,20.06Zm1,.18c0-.07,0-.15,0-.22,0,.18,0,.35.06.52C57.85,20.46,57.83,20.35,57.81,20.24Zm.51-.74a8.61,8.61,0,0,0-.09,1,20,20,0,0,1-.3-2.26c0-.2,0-.4,0-.6A12.45,12.45,0,0,1,58.42,19C58.38,19.15,58.35,19.32,58.32,19.51Zm5.06-.89c-.06-.14-.12-.24-.17-.37,0-.45,0-.91,0-1.36l.08-.14a1.77,1.77,0,0,1,.24-.32l.06.23c0,.56,0,1.08-.06,1.54C63.47,18.32,63.43,18.45,63.38,18.61Zm.18-2.24,0,0v.07ZM62.94,13c.12-.09.17-.06.3-.16a2,2,0,0,0,.21-.24c.06.67.1,1.38.12,2.12,0,.48,0,.94,0,1.38h0l-.07.09-.11-.31c0,.1.06.23.08.35a1.26,1.26,0,0,0-.19.28,1.35,1.35,0,0,0-.08.21c0-.16,0-.31,0-.47h0v0a21.66,21.66,0,0,0-.42-3A.8.8,0,0,1,62.94,13Zm-1.15-2.22s.08,0,.11.08,0,.05,0,.11a.72.72,0,0,0,.07.12L61.9,11c-.09-.08-.11-.1-.12-.14S61.77,10.82,61.79,10.81Zm-2.13,9.5a1.8,1.8,0,0,0-.35-.39c0-.26,0-.52.06-.78v0a3.24,3.24,0,0,1,.38.82,3.43,3.43,0,0,1,.14.9A1.82,1.82,0,0,0,59.66,20.31Zm1,.5q0-.12,0-.25a6.1,6.1,0,0,1,0-.64,2.68,2.68,0,0,0-.09.47c0,.22,0,.42,0,.42s0-.11,0-.27a1.47,1.47,0,0,0-.08-.25c0,.07,0,.16,0,.24s0,.18,0,.26l-.18,0a1.91,1.91,0,0,1,.08-.47,2.07,2.07,0,0,1,.74-1,1.8,1.8,0,0,0-.52.39,1.89,1.89,0,0,0-.48,1.1,2.82,2.82,0,0,0-.06-.44,3,3,0,0,0-.67-1.31,4.46,4.46,0,0,1,.2-.77,3.88,3.88,0,0,0-.18.37c0-.45.06-.88.1-1.33.24-2.34.58-4.55,1-6.66.09.52.18,1,.26,1.58A54.86,54.86,0,0,1,61.33,20a1,1,0,0,0-.17.12,1.67,1.67,0,0,0-.2-.25,1.6,1.6,0,0,1,.15.3l-.13.15a1.35,1.35,0,0,0-.22.5Zm.27,0a1.22,1.22,0,0,1,.08-.34,1.19,1.19,0,0,1,.13-.24l0,.05a1.59,1.59,0,0,1,.07.51Zm.25-.65a1,1,0,0,1,.14-.14c0,.15,0,.3,0,.44h0A1.56,1.56,0,0,0,61.19,20.16Zm.46.45s0-.06,0-.1v0l0-.06c0,.2,0,.37,0,.37S61.67,20.72,61.65,20.61Zm.16.2q0-.13,0-.27c0-.08,0-.14,0-.21s.08-.07.07-.08l-.07,0c0-.15,0-.3,0-.43a2.59,2.59,0,0,0-.1.5l-.06.05a44.49,44.49,0,0,0-.46-7.34c-.15-1-.35-2-.55-3,.09-.44.17-.88.27-1.31h0a.51.51,0,0,1,.08.09h0a.09.09,0,0,1,0,.07s0,.05.15.14a.44.44,0,0,1,.17.14s0,0,0,0-.07,0-.17-.08-.06,0-.07,0l.07.07.15.14s0,.05,0,.06-.06,0-.08,0-.07,0-.08,0,0,.06,0,.07.05.09,0,.12,0,0-.06,0a.1.1,0,0,0,0,.07.24.24,0,0,0,.1.17s.08,0,.08.07,0,0,0,0,0,0,0,.06l0,.06a.4.4,0,0,1,0,.1c0,.05,0,.05,0,.06s-.05-.09-.15-.14l-.12,0L61,10c-.05,0-.05,0-.1-.07s-.09,0-.1,0,0,0,.06.08l.08.08,0,0h-.07s-.05,0-.06,0,0,0,.08.08.09.05.08.07l0,0s0,.08,0,.08a.21.21,0,0,0,.12.08l.17,0a.12.12,0,0,1,.06,0s0,0,0,0-.06,0-.15,0h-.08s.08,0,.18.11l.07.06c.09.07.1.09.1.1s-.06,0-.07,0,0,0,.07.06l.12.08.17.11c.06.06.12.13.11.15l-.14,0a.52.52,0,0,0-.17,0s-.08,0-.08,0,0,0,.11.07l.15.07a1.5,1.5,0,0,0,.14.1l0,0s-.1,0-.11,0,0,.05.08.07.09,0,.14,0,0,0,.07.08a.35.35,0,0,0,.11.07c.12.39.23.79.32,1.19A21.5,21.5,0,0,1,63,16l0-.07a8.23,8.23,0,0,1-.31-.77,2.76,2.76,0,0,0-.25-.72,1.5,1.5,0,0,0-.23-.28c0,.09.08.23.13.4.14.45.13.51.22.74a4,4,0,0,0,.3.56l.18.29q.07.95.06,1.91a8.86,8.86,0,0,0-.5-.89,10,10,0,0,1,.5,1.31c0,.59-.06,1.19-.12,1.79a5.5,5.5,0,0,0-.18-.8,4.47,4.47,0,0,0-.59-1.23,5,5,0,0,1,.43,1.29c0,.11,0,.22,0,.33a1.71,1.71,0,0,0-.27.19,1.82,1.82,0,0,0-.26-.26,1.6,1.6,0,0,1,.2.31l-.16.17a1.4,1.4,0,0,0-.27.55Zm.84-.41a1.53,1.53,0,0,0-.19-.32,1.43,1.43,0,0,1,.24-.22,6.9,6.9,0,0,1,.06.85v0A1.45,1.45,0,0,0,62.65,20.39Zm.44-.13c.05-.49.1-1,.12-1.47l.07.24a9.06,9.06,0,0,0-.16,1.2Zm.62-.75-.07-.21c.06-.39.12-.86.16-1.39,0,.11,0,.21,0,.32A24.16,24.16,0,0,1,64,20.69C63.92,20.31,63.83,19.91,63.7,19.51Zm1,1.2c0-.25,0-.49,0-.74a9.08,9.08,0,0,1,.14-1.67l.08,2.14A3,3,0,0,0,64.66,20.71Zm1.2-.43c0-.09,0-.19,0-.28h.06a3.61,3.61,0,0,1,.1.74A1.92,1.92,0,0,0,65.86,20.28Zm.41.41a2.83,2.83,0,0,0-.06-.44,2.65,2.65,0,0,0-.09-.3,1.56,1.56,0,0,1,.39,0A2,2,0,0,0,66.27,20.69Zm.47-.43c0,.22,0,.42,0,.42s0-.11,0-.27a1.48,1.48,0,0,0-.08-.25c0,.07,0,.16,0,.24s0,.18,0,.26l-.18,0a1.91,1.91,0,0,1,.08-.47,1.81,1.81,0,0,1,.12-.27l.14,0A2.62,2.62,0,0,0,66.74,20.27Zm.34.42a1.22,1.22,0,0,1,.08-.34,1.2,1.2,0,0,1,.13-.24l0,.05a1.59,1.59,0,0,1,.07.51Zm.47,0a1.55,1.55,0,0,0-.21-.62,1.33,1.33,0,0,1,.24-.24,1.36,1.36,0,0,0-.26.2,1.67,1.67,0,0,0-.2-.25,1.6,1.6,0,0,1,.15.3l-.13.15a1.35,1.35,0,0,0-.22.5h-.11q0-.12,0-.25a6.1,6.1,0,0,1,0-.64c0,.05,0,.12,0,.19l-.13-.06a2.18,2.18,0,0,1,.61-.71,1.8,1.8,0,0,0-.52.39,1.71,1.71,0,0,0-.21.28,1.46,1.46,0,0,0-.48-.1,2.79,2.79,0,0,0-.14-.27c0-.67.09-1.34.16-2,.22-2.18.53-4.25.9-6.23,0,.3.1.58.14.88a55,55,0,0,1,.56,8.27A.91.91,0,0,0,67.55,20.66Z"/><path class="cls-1" d="M4.14,20.33a1.88,1.88,0,0,0-1,.51c0-.13,0-.27,0-.41a5.07,5.07,0,0,1,.77-2.09,4.13,4.13,0,0,0-.65,1c.21-1,.44-2,.72-3.09.43-1.61.9-3.11,1.4-4.52-.42.93-.82,1.93-1.19,3a33.06,33.06,0,0,0-1.35,5.41c0-.13,0-.24,0-.38a8.9,8.9,0,0,0-.56-2.21,10.63,10.63,0,0,1,.27,1.38,4.17,4.17,0,0,0-.34.72,5.05,5.05,0,0,0-.53-.84c.12-.49.28-1.3.47-2.66a6.42,6.42,0,0,1,.38-.76,5.5,5.5,0,0,1,.52-.71,3.15,3.15,0,0,0-.78.85,4.84,4.84,0,0,0-.43.89,6.75,6.75,0,0,0-.23.73,12,12,0,0,0-.2-1.82c0,.56,0,1.4,0,2.42,0,.33,0,.64-.07.94s-.09.72-.12,1.15-.08.58-.11.78c0-.44-.09-1-.17-1.53s-.14-1-.27-1.65A15.43,15.43,0,0,0,0,15.17c0,.14.11.38.19.67.23.92.24,1.31.47,2.45.13.65.14.59.24,1.12s.15.89.19,1.24a1.67,1.67,0,0,0,0,.45s0-.06.08-.17l0,.15v-.16l0-.07c0,.05,0,.1,0,.15a.28.28,0,0,0,0,.06h0v0s.05-.27.13-.65L1.36,20l.1-.39a2.49,2.49,0,0,1,.22.53,2.63,2.63,0,0,1,.08.9A.24.24,0,0,0,2.17,21a6.45,6.45,0,0,1,.06-.74c0,.19.07.37.09.53a1,1,0,0,0,1,0,2.13,2.13,0,0,1,.52-.31,2.23,2.23,0,0,1,1.26-.12A1.87,1.87,0,0,0,4.14,20.33Zm-2.08-4c-.15.56-.3,1.2-.45,1.93h0c0-.17,0-.33,0-.5A9.27,9.27,0,0,1,2.06,16.35Zm-.9,4.6v-.16Zm.82,0a2.49,2.49,0,0,0-.18-.77,2.34,2.34,0,0,0-.32-.54c.06-.24.11-.41.13-.48l.08-.3a5.71,5.71,0,0,1,.45,1.07A4.16,4.16,0,0,0,2,20.92Zm.66-.11a5,5,0,0,0-.18-.65c0-.12-.09-.23-.13-.33A6.43,6.43,0,0,1,2.57,19c0,.12,0,.25,0,.38A10.61,10.61,0,0,1,2.63,20.82Z"/><path class="cls-1" d="M7.5,17.41c0-.33-.07-.52-.18-1.3l0-.18a6.12,6.12,0,0,1,.58-.75,6.25,6.25,0,0,1,.76-.71,4.11,4.11,0,0,0-1.15.85s-.12.14-.23.27l0-.26c0,.1,0,.2,0,.29a5.13,5.13,0,0,0-.38.58,6.7,6.7,0,0,0-.69,1.92c-.05.23-.11.51-.16.8,0-.24.06-.48.07-.74a11.67,11.67,0,0,0-.19-3c0,.56,0,1.4,0,2.42,0,.74-.1,1.38-.17,1.9,0-.07,0-.14,0-.22,0-.64,0-.84-.18-2.91-.08-1.17-.1-1.51-.18-2.11s-.15-1-.21-1.33c0,.57,0,1.45.12,2.52s.22,1.46.32,2.63c.06.65.08,1.23.09,1.7A10.59,10.59,0,0,0,5.51,21a1.35,1.35,0,0,0,.16-.43c0,.21,0,.34,0,.34a3.72,3.72,0,0,0,0-.42c.07-.26.15-.61.22-1-.06.43-.1.91-.12,1.44a12.73,12.73,0,0,1,.28-1.85A9.38,9.38,0,0,1,7.24,16c0,.53.06,1,.1,1.32.06.6.1.75.2,1.63.14,1.24.18,1.92.2,1.92s0-1.22-.12-2.31C7.55,17.87,7.52,17.57,7.5,17.41Z"/><path class="cls-1" d="M14.78,20.5a1.8,1.8,0,0,0-.15-.36,1.88,1.88,0,0,0-.22-.33,1.19,1.19,0,0,1,.26-.23,1.35,1.35,0,0,0-.3.18,2.33,2.33,0,0,0-.29-.27,1.92,1.92,0,0,1,.24.32,1.37,1.37,0,0,0-.16.17,1.5,1.5,0,0,0-.29.63h-.18q0-.17,0-.33a5.41,5.41,0,0,1,0-.76,2.33,2.33,0,0,0-.13.55c0,.29,0,.56,0,.56s0-.16-.07-.36a1.44,1.44,0,0,0-.12-.29c0-.06,0-.13,0-.19a2.18,2.18,0,0,1,.91-.78,2.12,2.12,0,0,0-.68.3,1.89,1.89,0,0,0-.23.2c0-.32,0-.68,0-1.07,0-1.1.1-2,.17-2.6a10.79,10.79,0,0,0-.42,2.77c0,.39,0,.76,0,1.1a2.38,2.38,0,0,0-.49,1,2.88,2.88,0,0,0-.07-.66,2.63,2.63,0,0,0-.33-.78c.07-.89.2-2.08.43-3.53.31-1.89.67-3.42.94-4.45a25.67,25.67,0,0,0-1,3.31A26.8,26.8,0,0,0,12.14,18c0-.9-.13-1.94-.28-3.06a32.18,32.18,0,0,0-1-4.56c.22,1.1.53,2.75.77,4.78.18,1.52.28,2.79.34,3.77a4.94,4.94,0,0,0-.86-.83A3.51,3.51,0,0,1,12,19.46l0,.09c0,.2,0,.38,0,.54s0,.41,0,.55a1.9,1.9,0,0,0-.38-.66,3.15,3.15,0,0,0-.86-.65,27.84,27.84,0,0,0,.07-4,26.61,26.61,0,0,0-.5-3.92c.07.73.17,1.78.23,3,.1,2,.07,3.65,0,4.74-.2-.1-.39-.18-.54-.24a3.87,3.87,0,0,1,.54.36c0,.41,0,.74,0,1h-.06a1.88,1.88,0,0,0-1,.51c0-.13,0-.27,0-.41a5.07,5.07,0,0,1,.77-2.09,4,4,0,0,0-1,2.48,8.82,8.82,0,0,0-.06-1.07,8.9,8.9,0,0,0-.56-2.21A10.63,10.63,0,0,1,9,18.92a4.17,4.17,0,0,0-.34.72A5,5,0,0,0,8.26,19a27.4,27.4,0,0,0,.61-3.37c-.19.68-.41,1.55-.62,2.57l-.12.61L8,18.67l.11.21c-.06.3-.11.59-.15.84a2.5,2.5,0,0,0-.22-.29,2.81,2.81,0,0,1,.21.39c-.11.69-.17,1.15-.16,1.16s.06-.33.18-.85L8,20a2.27,2.27,0,0,1,.08.21,2.63,2.63,0,0,1,.08.9A.24.24,0,0,0,8.58,21a6.45,6.45,0,0,1,.06-.74c0,.19.07.37.09.53a1,1,0,0,0,1,0,2.13,2.13,0,0,1,.52-.31,2,2,0,0,1,.33-.1.91.91,0,0,0,0,.28,1.11,1.11,0,0,0,.07-.3,2.22,2.22,0,0,1,.72,0,1.92,1.92,0,0,1,.07.47,5.62,5.62,0,0,0,1.24.18A4.08,4.08,0,0,0,15,20.54a.87.87,0,0,1,.07-.38,1.58,1.58,0,0,1,.18-.25.54.54,0,0,0-.28.21A.83.83,0,0,0,14.78,20.5Zm-6.4.43a2.49,2.49,0,0,0-.18-.77,2.26,2.26,0,0,0-.16-.3c.09-.36.16-.61.2-.74a5.7,5.7,0,0,1,.31.8A4.16,4.16,0,0,0,8.38,20.92ZM9,20.82a5,5,0,0,0-.18-.65c0-.12-.09-.23-.13-.33A6.43,6.43,0,0,1,9,19c0,.12,0,.25,0,.38A10.61,10.61,0,0,1,9,20.82Zm1.66-.5c0-.2.07-.5.1-.83a2.28,2.28,0,0,1,.36.41,1.83,1.83,0,0,1,.23.49A1.91,1.91,0,0,0,10.7,20.32Zm2.65-.06c0,.07,0,.14,0,.21v-.36S13.35,20.21,13.35,20.26Zm-.19-.17c0,.22.05.4.08.55l-.24.05A2.23,2.23,0,0,1,13.16,20.09Zm1,.5a1.3,1.3,0,0,1,.08-.42,1.15,1.15,0,0,1,.15-.28l0,.06a1.71,1.71,0,0,1,.16.59Z"/></g></g></svg>