<svg xmlns="http://www.w3.org/2000/svg" viewBox="0 0 24.78 11.35"><title>Schrub_6</title><g id="Warstwa_2" data-name="Warstwa 2"><g id="Layer_2" data-name="Layer 2"><path d="M24.78,11.35A2.54,2.54,0,0,0,24.2,11,2.87,2.87,0,0,0,23,10.82h-.16c.16-.18.28-.41.21-.49s-.41,0-.48,0a1.56,1.56,0,0,0-.34.19l-.11.08c0-.34-.12-.79-.32-.81s-.34.29-.48.58a1.87,1.87,0,0,0-.16.36,1.07,1.07,0,0,0-.23-.07l-.09,0c.14-.13.22-.26.18-.32s-.39,0-.78,0a1.31,1.31,0,0,0-.48.18l0,0c-.08-.06-.08-.09-.29-.53h0c.17.06.32.08.39,0s-.14-.57-.34-.87a3,3,0,0,0-.32-.44c.33-.13.58-.3.56-.44S19.29,8.06,19,8a2,2,0,0,0-1,0c.05-.11.08-.2.1-.24.1-.28.21-.6.1-.68s-.17,0-.28.06a.88.88,0,0,0-.4-.19,1,1,0,0,0-.37,0,.68.68,0,0,0,.14-.48.67.67,0,0,0-.17-.37.61.61,0,0,0-.4.21.53.53,0,0,0-.08.14l-.12,0-.15,0a.83.83,0,0,0,.22-.46.79.79,0,0,0,0-.25A.62.62,0,0,0,16.1,6a.56.56,0,0,0,0,.33H16l-.07,0-.07-.08-.08-.08a1,1,0,0,0,.14-.79.69.69,0,0,0,0-.09l.1-.05a1.38,1.38,0,0,0-.25-.3l-.17-.13,0,0,0,0a.76.76,0,0,0,.54-.11.71.71,0,0,0,.21-.24,1,1,0,0,0-.49-.26,1,1,0,0,0-.37,0,.68.68,0,0,0,.14-.48.67.67,0,0,0-.17-.37.61.61,0,0,0-.4.21.53.53,0,0,0-.08.14l-.12,0h0A.91.91,0,0,0,15,3.1a1,1,0,0,0,0-.18.62.62,0,0,0-.52.37.45.45,0,0,0,0,.11l-.17.2,0,0-.08-.08a1,1,0,0,0,.14-.79.92.92,0,0,0-.26-.43,1.31,1.31,0,0,0-.21.38,1.29,1.29,0,0,0,0,.15.54.54,0,0,1-.16,0h-.12l-.12-.14,0-.07a.49.49,0,0,0,.18,0,.77.77,0,0,0,.41-.36.64.64,0,0,0-.22-.09.47.47,0,0,0-.39.06.37.37,0,0,0-.13.24l-.06,0,0,0,0,0A.78.78,0,0,0,12.91,2a.77.77,0,0,0-.27-.22.8.8,0,0,0-.13.47.75.75,0,0,0,0,.2.58.58,0,0,0-.17.36l-.17,0a.47.47,0,0,0,.13-.43.72.72,0,0,0-.63.23.5.5,0,0,0-.06.12h-.07l0-.17a.92.92,0,0,0-.23.12l-.12.11h0a.92.92,0,0,0,.07-.29,1,1,0,0,0,0-.35.5.5,0,0,0-.18.06.59.59,0,0,0,0-.1.94.94,0,0,0-.22,0,.11.11,0,0,0,0-.08c0-.17-.63-.26-1-.29l-.41,0a3,3,0,0,0,.26-.41c.21-.36.38-.67.29-.78S9.4.54,9,.93a2.25,2.25,0,0,0-.32.42A2.87,2.87,0,0,0,8.53,1C8.36.63,8-.06,7.81,0s-.15.64,0,1.07a2.69,2.69,0,0,0,.16.44l-.1,0a.91.91,0,0,0-.35-.25c-.33-.16-.85-.18-1,0s.1.47.15.53a1.13,1.13,0,0,0,.18.19s0,0,0,0l-.08,0a.76.76,0,0,0-.29-.22,1,1,0,0,0-.1.14.83.83,0,0,0-.11.34l-.18.12,0,0A.71.71,0,0,0,6,1.88a.65.65,0,0,0-.37-.23.65.65,0,0,0-.14.46.61.61,0,0,0,.12.29H5.4a.68.68,0,0,0-.19.06l.07.13.1.13A.76.76,0,0,0,4.75,3a.77.77,0,0,0,.61.44,1.07,1.07,0,0,0-.14.2A.59.59,0,0,0,4.86,4l-.06,0a.81.81,0,0,0-.28.22.83.83,0,0,0,.33.31l-.07.1L4.7,4.61l-.1,0a.71.71,0,0,0-.05.49.66.66,0,0,0,.12.24.47.47,0,0,0-.33,0,.46.46,0,0,0-.2.16.54.54,0,0,0-.23-.3.51.51,0,0,0-.21-.07.69.69,0,0,0,0,.29l-.06,0a.53.53,0,0,0-.23,0,.84.84,0,0,0,0,.43H3.28a1,1,0,0,0-.21-.36,1,1,0,0,0-.21-.17.7.7,0,0,0-.21.6.64.64,0,0,0,.2.36.8.8,0,0,0-.71.09,1.38,1.38,0,0,0,.25.3l.17.13,0,0,0,0A.76.76,0,0,0,2,6.9a.71.71,0,0,0-.21.24,1,1,0,0,0,.49.26,1,1,0,0,0,.37,0,.68.68,0,0,0-.14.48v0c-.37.25-.62.63-.53.77s.54,0,.78,0h0l-.1.19c-.16.37-.24.92,0,1s.33,0,.52-.24a3.22,3.22,0,0,0,0,.48c0,.26.05.54.19.58s.45-.2.6-.54a1.93,1.93,0,0,1,.25.6.64.64,0,0,0-.42,0,.68.68,0,0,0-.27.23l-.56.11A2,2,0,0,1,2,11c.27-.16.45-.42.4-.53s-.43-.1-.68,0l-.09,0c0-.08,0-.17,0-.28,0-.74,0-.85-.1-.87s-.3.23-.39.44a1.45,1.45,0,0,0-.12.5c-.12-.07-.28-.13-.37-.07s-.13.54.06.78a3,3,0,0,0-.69.33ZM12.48,3.18h0Zm1.4,1.16a.52.52,0,0,1,0-.11l.05,0-.06.17A.31.31,0,0,1,13.89,4.34Zm-8.08.17h0l-.05.14h0a.59.59,0,0,1-.2-.16Zm6.48.19v0h-.06Zm3.11,2,0,0a.26.26,0,0,0,0,.07.27.27,0,0,0,.07.1l-.09,0Zm.19.43a.36.36,0,0,0,0,.14.54.54,0,0,1,0-.22.53.53,0,0,1,0-.11.18.18,0,0,0,.1,0l0,0,0,.06,0,0A.37.37,0,0,0,15.59,7.17Zm-.16-1.61h0a.77.77,0,0,0-.12-.15l.17,0ZM6.16,3.33l-.1,0L6,3.31h.14ZM6.1,3.7l0,0h0ZM17.53,7.57a1.21,1.21,0,0,0-.13.2l0-.1,0-.1A.8.8,0,0,0,17.53,7.57Zm-.88-.15,0,0,0,.17a.41.41,0,0,0-.06-.08h0a2.11,2.11,0,0,0,0-.42h.06a.28.28,0,0,0,0,.2A.34.34,0,0,0,16.64,7.42ZM15,4.32a.28.28,0,0,0,0,.09.29.29,0,0,0,0,.12s0,0,0,.06a2.15,2.15,0,0,0-.43-.07.23.23,0,0,1,0-.07l.14-.13.1,0A.36.36,0,0,0,15,4.32Zm-1.17-.18s0-.06,0-.09l.06.08Zm-1.14-.19a.26.26,0,0,0,0,.11L12.58,4s0,0,0-.05l-.09-.05,0-.07,0-.06.14,0h.17A.36.36,0,0,0,12.71,3.95ZM12,3.41c0,.05,0,.11,0,.16s0,.1,0,.15A.8.8,0,0,0,12,3.62a1,1,0,0,0-.14-.14A.42.42,0,0,0,12,3.41ZM5.67,2.88l0,0,0,0ZM3.1,6.69a.54.54,0,0,0,.1.14h0l-.1,0a.43.43,0,0,0-.1-.1Z"/></g></g></svg>